<svg id="Layer_1" enable-background="new 0 0 24 24" height="512" viewBox="0 0 24 24" width="512" xmlns="http://www.w3.org/2000/svg"><path d="m12 1c-6.1 0-11 4.9-11 11s4.9 11 11 11 11-4.9 11-11-4.9-11-11-11zm0 20c-5 0-9-4-9-9s4-9 9-9 9 4 9 9-4 9-9 9zm6-12.4c-.3-.2-.7-.2-1 0l-2.2 1.1-2-2.8c-.4-.5-1.3-.5-1.6 0l-2 2.8-2.3-1.1c-.3-.2-.7-.1-1 0-.2.2-.4.6-.4.9v5c0 .6.4 1 1 1h11c.6 0 1-.4 1-1v-5c0-.3-.2-.7-.5-.9zm-1.5 4.9h-9v-2.4l1.6.8c.4.2 1 .1 1.3-.3l1.6-2.4 1.7 2.4c.3.4.8.5 1.3.3l1.6-.8v2.4z" fill="rgb(0,0,0)"/></svg>