<svg id="solid" enable-background="new 0 0 128 128" height="128" viewBox="0 0 128 128" width="128" xmlns="http://www.w3.org/2000/svg"><path d="m102.772 29.396c-5.022-5.022-11.699-7.788-18.801-7.788-7.103 0-13.779 2.766-18.801 7.788l-.127.125c-.592.576-1.537.567-2.117-.024l-.106-.108c-5.013-5.012-11.689-7.777-18.791-7.777-7.103 0-13.779 2.766-18.802 7.787-5.022 5.022-7.788 11.699-7.788 18.801s2.766 13.779 7.788 18.802l38.77 38.769 38.784-38.782c5.014-5.013 7.779-11.689 7.779-18.791.001-7.102-2.765-13.779-7.788-18.802z"/></svg>
