<svg id="Layer_1" viewBox="0 0 512 512" xmlns="http://www.w3.org/2000/svg" data-name="Layer 1"><path d="m255.749.447c141.384 0 256 114.587 256 255.963s-114.615 256.007-256 256.007-255.999-114.63-255.999-256.007 114.623-255.963 255.999-255.963zm46.867 349.283a105.183 105.183 0 0 0 46.418-46.421 50.467 50.467 0 0 1 0-93.755 105.19 105.19 0 0 0 -46.418-46.42 50.454 50.454 0 0 1 -93.734 0 105.411 105.411 0 0 0 -46.447 46.42 50.468 50.468 0 0 1 0 93.755 105.4 105.4 0 0 0 46.447 46.421 50.454 50.454 0 0 1 93.734 0zm65.135-143.781c-1.168 0-2.306.051-3.444.127a120.6 120.6 0 0 0 -58.217-58.189c.09-1.148.15-2.3.15-3.472a50.491 50.491 0 0 0 -100.981 0c0 1.168.06 2.324.149 3.472a120.6 120.6 0 0 0 -58.216 58.189c-1.138-.076-2.306-.127-3.474-.127a50.487 50.487 0 0 0 0 100.973c1.168 0 2.336-.058 3.474-.134a120.59 120.59 0 0 0 58.216 58.188c-.089 1.151-.149 2.305-.149 3.474a50.491 50.491 0 0 0 100.981 0c0-1.169-.06-2.323-.15-3.474a120.588 120.588 0 0 0 58.217-58.188c1.138.076 2.276.134 3.444.134a50.487 50.487 0 1 0 0-100.973z" fill="#5eac24" fill-rule="evenodd"/></svg>