<svg id="Layer_1" enable-background="new 0 0 24 24" viewBox="0 0 24 24" xmlns="http://www.w3.org/2000/svg" xmlns:xlink="http://www.w3.org/1999/xlink"><linearGradient id="lg1"><stop offset="0" stop-color="#f47650"/><stop offset="1" stop-color="#e2083b"/></linearGradient><linearGradient id="SVGID_1_" gradientUnits="userSpaceOnUse" x1="9.565" x2="13.743" xlink:href="#lg1" y1="10.264" y2="14.442"/><linearGradient id="SVGID_2_" gradientUnits="userSpaceOnUse" x1=".241" x2="28.544" xlink:href="#lg1" y1=".241" y2="28.544"/><linearGradient id="SVGID_3_" gradientUnits="userSpaceOnUse" x1="5.995" x2="20.448" xlink:href="#lg1" y1="5.995" y2="20.448"/><g><path d="m10.9 14.1 2.9-2.1-2.9-2.1z" fill="url(#SVGID_1_)"/><path d="m12 .3c-6.5 0-11.7 5.2-11.7 11.7s5.2 11.8 11.7 11.8 11.8-5.3 11.8-11.8-5.3-11.7-11.8-11.7zm0 19.2c-4.1 0-7.5-3.4-7.5-7.5s3.4-7.5 7.5-7.5 7.5 3.4 7.5 7.5-3.4 7.5-7.5 7.5z" fill="url(#SVGID_2_)"/><path d="m12 6c-3.3 0-6 2.7-6 6s2.7 6 6 6 6-2.7 6-6-2.7-6-6-6zm2.8 7.1-3.3 2.4c-.2.2-.5.3-.8.3-.2 0-.4 0-.6-.1-.5-.2-.7-.7-.7-1.2v-4.9c0-.5.3-1 .7-1.2.5-.2 1-.2 1.4.1l3.3 2.4c.3.3.5.7.5 1.1s-.1.8-.5 1.1z" fill="url(#SVGID_3_)"/></g></svg>