<svg viewBox="0 0 512 512" xmlns="http://www.w3.org/2000/svg"><g id="Layer_2" data-name="Layer 2"><g id="badge"><circle id="background" cx="256" cy="256" fill="#00a1f5" r="256"/><g fill="#fff"><path d="m256 100.2a114.82 114.82 0 0 0 -87.83 188.86v107.24a15.23 15.23 0 0 0 22.3 13.49l65.4-34.25 62.95 34.15a15.23 15.23 0 0 0 22.5-13.39v-104.36a114.82 114.82 0 0 0 -85.32-191.74zm54.85 270.5-47.59-25.82a15.22 15.22 0 0 0 -14.33-.1l-50.29 26.34v-56.52a114.66 114.66 0 0 0 112.21 1.4zm8.46-162.48-20.6 20.08 4.86 28.36a15.23 15.23 0 0 1 -22.1 16.06l-25.47-13.39-25.47 13.39a15.23 15.23 0 0 1 -22.1-16.06l4.86-28.36-20.6-20.08a15.23 15.23 0 0 1 8.44-26l28.48-4.13 12.73-25.81a15.23 15.23 0 0 1 27.32 0l12.73 25.81 28.48 4.13a15.23 15.23 0 0 1 8.44 26z"/><path d="m258.62 198.76-2.62-5.3-2.62 5.3a15.26 15.26 0 0 1 -11.47 8.34l-5.85.85 4.24 4.12a15.27 15.27 0 0 1 4.38 13.49l-1 5.83 5.23-2.76a15.26 15.26 0 0 1 14.18 0l5.23 2.75-1-5.82a15.27 15.27 0 0 1 4.38-13.49l4.24-4.12-5.85-.85a15.26 15.26 0 0 1 -11.47-8.34z"/></g></g></g></svg>