<svg id="Layer_1" enable-background="new 0 0 24 24" viewBox="0 0 24 24" xmlns="http://www.w3.org/2000/svg" xmlns:xlink="http://www.w3.org/1999/xlink"><linearGradient id="SVGID_1_" gradientUnits="userSpaceOnUse" x1="12" x2="12" y1="0" y2="24"><stop offset="0" stop-color="#f7b733"/><stop offset="1" stop-color="#fc4a1a"/></linearGradient><switch><foreignObject height="1" requiredExtensions="http://ns.adobe.com/AdobeIllustrator/10.0/" width="1"/><g><circle cx="12" cy="12" fill="url(#SVGID_1_)" r="12"/><path d="m12.2 12.1c.7-.6 1.2-1.6 1.2-2.5 0-1.9-1.5-3.4-3.4-3.4s-3.4 1.5-3.4 3.4c0 1 .4 1.9 1.2 2.5-1.9.9-3.2 2.9-3.2 5 0 .4.3.7.7.7s.7-.3.7-.7c0-2.2 1.8-4.1 4.1-4.1s4.1 1.8 4.1 4.1c0 .4.3.7.7.7s.7-.3.7-.7c-.2-2.1-1.4-4.1-3.4-5zm-2.2-.5c-1.2 0-2-.9-2-2s.9-2 2-2 2 .9 2 2-.9 2-2 2zm6.6.2c1.2-1.4 1.1-3.5-.3-4.8-.6-.5-1.4-.9-2.2-.9-.4 0-.7.3-.7.7s.3.7.7.7c1.2 0 2 .9 2 2 0 .7-.4 1.4-1 1.8-.2.1-.3.3-.3.5s.1.5.3.6l.3.2.1.1c1.7.8 2.7 2.5 2.7 4.3 0 .4.3.7.7.7s.7-.3.7-.7c-.1-2-1.2-4-3-5.2z" fill="#fff"/></g></switch></svg>