<svg id="ICON" height="512" viewBox="0 0 32 32" width="512" xmlns="http://www.w3.org/2000/svg"><path d="m21.586 15.188c.249.188.395.483.395.796s-.146.607-.395.796l-7.963 6.053c-.181.138-.394.204-.604.204-.302 0-.601-.136-.797-.395-.334-.44-.249-1.067.191-1.401l6.916-5.257-6.916-5.258c-.44-.334-.525-.962-.191-1.401s.962-.525 1.401-.19l7.963 6.054zm9.413.812c0 8.271-6.729 15-15 15s-15-6.729-15-15 6.729-15 15-15 15 6.729 15 15zm-2 0c0-7.168-5.832-13-13-13s-13 5.832-13 13 5.832 13 13 13 13-5.832 13-13z"/></svg>