<svg height="512" viewBox="0 0 64 64" width="512" xmlns="http://www.w3.org/2000/svg" xmlns:xlink="http://www.w3.org/1999/xlink"><linearGradient id="linear-gradient" gradientUnits="userSpaceOnUse" x1="3.25" x2="60.75" y1="32" y2="32"><stop offset="0" stop-color="#5bb4f6"/><stop offset=".61" stop-color="#2191e5"/><stop offset="1" stop-color="#007edb"/></linearGradient><g id="Layer_63" data-name="Layer 63"><circle cx="32" cy="32" fill="url(#linear-gradient)" r="28.75"/><path d="m49.57 43a20.55 20.55 0 0 0 0-22 .52.52 0 0 0 -.11-.19 20.7 20.7 0 0 0 -34.92 0 .52.52 0 0 0 -.11.19 20.55 20.55 0 0 0 0 22 .52.52 0 0 0 .11.19 20.7 20.7 0 0 0 34.92 0 .52.52 0 0 0 .11-.19zm-36.78-10.25h6.94a31.94 31.94 0 0 0 1.5 9.25h-5.67a19.07 19.07 0 0 1 -2.77-9.25zm2.77-10.75h5.67a31.94 31.94 0 0 0 -1.5 9.21h-6.94a19.07 19.07 0 0 1 2.77-9.21zm35.65 9.21h-6.94a31.94 31.94 0 0 0 -1.5-9.21h5.67a19.07 19.07 0 0 1 2.77 9.25zm-8.44 0h-6.94c0-1.69-.08-5.42-.4-9.21h5.78a30.85 30.85 0 0 1 1.56 9.25zm-12.69 10.79c-.24-2.6-.39-5.69-.41-9.21h4.66c0 3.52-.17 6.61-.41 9.21zm3.7 1.5c-.49 4.42-1.2 7.15-1.78 7.73-.58-.58-1.29-3.31-1.78-7.73zm-4.11-12.25c0-3.52.17-6.61.41-9.21h3.84c.24 2.6.39 5.69.41 9.21zm.55-10.71c.49-4.42 1.2-7.15 1.78-7.73.58.58 1.29 3.31 1.78 7.73zm5.07 0a29.32 29.32 0 0 0 -1.53-7.54c2.81.83 5.25 3.59 6.89 7.51zm-5.05-7.54a29.32 29.32 0 0 0 -1.53 7.51h-5.36c1.65-3.89 4.08-6.65 6.89-7.51zm-1.67 9c-.32 3.79-.39 7.52-.4 9.21h-6.94a30.85 30.85 0 0 1 1.56-9.21zm-7.34 10.75h6.94c0 1.69.08 5.42.4 9.21h-5.78a30.85 30.85 0 0 1 -1.56-9.21zm7.48 10.71a29.32 29.32 0 0 0 1.53 7.54c-2.81-.83-5.25-3.59-6.89-7.51zm5 7.51a29.32 29.32 0 0 0 1.53-7.51h5.36c-1.6 3.92-4.03 6.68-6.84 7.54zm1.67-9c.32-3.79.39-7.52.4-9.21h6.94a30.85 30.85 0 0 1 -1.51 9.24zm8.84-9.21h6.94a19.07 19.07 0 0 1 -2.72 9.24h-5.67a31.94 31.94 0 0 0 1.5-9.25zm3.16-12.21h-5.2a18 18 0 0 0 -4.57-6.94 19.32 19.32 0 0 1 9.82 6.93zm-21.04-6.95a18 18 0 0 0 -4.57 6.94h-5.2a19.32 19.32 0 0 1 9.77-6.94zm-9.77 29.86h5.2a18 18 0 0 0 4.57 6.94 19.32 19.32 0 0 1 -9.77-6.94zm21.09 6.94a18 18 0 0 0 4.57-6.94h5.2a19.32 19.32 0 0 1 -9.77 6.94z" fill="#fff"/></g></svg>