<svg id="Glyph" enable-background="new 0 0 48 48" viewBox="0 0 48 48" xmlns="http://www.w3.org/2000/svg"><path d="m33.1562 19.67299c-.12177-.2373-.36047-.41461-.65497-.41461h-5.51855s5.13574-8.81897 5.16687-8.87231c.27899-.47919-.09564-1.12769-.64831-1.12769h-10c-.3125 0-.59229.19385-.70215.48682 0 0-5.96411 15.90375-5.99982 15.99908-.16986.45288.18018 1.0141.70197 1.0141h5.06055s-1.79492 11.09369-1.80078 11.12976c-.12006.742.90082 1.17621 1.34814.55969 0 0 12.91925-17.888 13.00012-18 .17346-.24011.1687-.53754.04693-.77484z"/></svg>
