<svg fill="none" height="64" viewBox="0 0 64 64" width="64" xmlns="http://www.w3.org/2000/svg"><g clip-rule="evenodd" fill="rgb(0,0,0)" fill-rule="evenodd"><path d="m31.9366 23.9286c-4.4577 0-8.0714 3.6137-8.0714 8.0714s3.6137 8.0714 8.0714 8.0714 8.0714-3.6137 8.0714-8.0714-3.6137-8.0714-8.0714-8.0714zm-4.0714 8.0714c0-2.2486 1.8228-4.0714 4.0714-4.0714s4.0714 1.8228 4.0714 4.0714-1.8228 4.0714-4.0714 4.0714-4.0714-1.8228-4.0714-4.0714z"/><path d="m29.5082 13c-.8984 0-1.6866.5991-1.927 1.4647l-.8573 3.0861c-1.7299.6242-3.3142 1.5493-4.6901 2.7112l-3.1053-.8017c-.8699-.2246-1.7828.1584-2.232.9365l-2.4285 4.2064c-.4493.778-.3245 1.7601.3049 2.4012l2.2453 2.2867c-.1569.8805-.2386 1.7859-.2386 2.7089s.0817 1.8284.2385 2.7089l-2.2451 2.2866c-.6295.6411-.7542 1.6232-.305 2.4012l2.4286 4.2065c.4492.778 1.3621 1.161 2.232.9365l3.1052-.8017c1.3759 1.1618 2.9602 2.087 4.6901 2.7112l.8573 3.0861c.2404.8656 1.0286 1.4647 1.927 1.4647h4.8572c.8984 0 1.6865-.5991 1.927-1.4647l.8572-3.0861c1.7299-.6241 3.3143-1.5493 4.6902-2.7112l3.1051.8017c.8699.2246 1.7828-.1584 2.232-.9365l2.4286-4.2064c.4492-.7781.3245-1.7602-.3049-2.4012l-2.2452-2.2866c.1569-.8805.2385-1.7859.2385-2.709s-.0816-1.8285-.2385-2.709l2.2452-2.2867c.6295-.641.7542-1.6231.305-2.4012l-2.4286-4.2064c-.4492-.778-1.3621-1.1611-2.232-.9365l-3.1053.8017c-1.3759-1.1618-2.9602-2.087-4.6901-2.7111l-.8572-3.0861c-.2405-.8656-1.0286-1.4647-1.927-1.4647zm.7808 6.6619.7394-2.6619h1.8168l.7394 2.6619c.1879.6763.7165 1.2047 1.393 1.3921 1.8765.5199 3.5605 1.5112 4.9154 2.8415.5005.4914 1.2219.6847 1.9011.5093l2.6789-.6916.9084 1.5734-1.9357 1.9715c-.4912.5002-.6846 1.2211-.5098 1.8999.2334.9062.358 1.8581.358 2.842s-.1246 1.9358-.358 2.8419c-.1748.6789.0186 1.3998.5098 1.9l1.9356 1.9714-.9084 1.5734-2.6787-.6916c-.6792-.1753-1.4006.018-1.9012.5094-1.3549 1.3303-3.0389 2.3216-4.9154 2.8415-.6765.1875-1.2051.7158-1.393 1.3921l-.7394 2.6619h-1.8168l-.7394-2.6619c-.1879-.6763-.7166-1.2046-1.393-1.3921-1.8765-.52-3.5606-1.5112-4.9155-2.8415-.5005-.4915-1.2219-.6848-1.9011-.5094l-2.6788.6915-.9084-1.5733 1.9357-1.9715c.4911-.5002.6845-1.221.5097-1.8999-.2333-.9062-.3579-1.858-.3579-2.8419s.1246-1.9357.3579-2.8419c.1748-.6789-.0186-1.3997-.5097-1.8999l-1.9358-1.9715.9084-1.5734 2.6789.6916c.6792.1753 1.4006-.018 1.9012-.5094 1.3548-1.3303 3.0389-2.3215 4.9154-2.8415.6764-.1874 1.2051-.7158 1.393-1.3921z"/><path d="m62 32c0-16.5685-13.4315-30-30-30s-30 13.4315-30 30 13.4315 30 30 30 30-13.4315 30-30zm-30-26c14.3594 0 26 11.6406 26 26s-11.6406 26-26 26-26-11.6406-26-26 11.6406-26 26-26z"/></g></svg>