<svg id="Layer_1" height="512" viewBox="0 0 512 512" width="512" xmlns="http://www.w3.org/2000/svg" data-name="Layer 1"><path d="m256 0c-141.159 0-256 114.841-256 256s114.841 256 256 256 256-114.841 256-256-114.841-256-256-256zm0 480c-123.514 0-224-100.486-224-224s100.486-224 224-224 224 100.486 224 224-100.486 224-224 224zm128.493-336.493v50.5a16 16 0 0 1 -32 0v-34.5h-192.986v192.986h192.986v-34.5a16 16 0 0 1 32 0v50.5a16 16 0 0 1 -16 16h-224.986a16 16 0 0 1 -16-16v-224.986a16 16 0 0 1 16-16h224.986a16 16 0 0 1 16 16zm-78.6 152.47 23.973-23.977h-133.548a16 16 0 1 1 0-32h133.548l-23.977-23.978a16 16 0 1 1 22.627-22.622l51.291 51.291a16 16 0 0 1 0 22.626l-51.291 51.283a16 16 0 0 1 -22.627-22.627z"/></svg>