<svg fill="none" height="512" viewBox="0 0 24 24" width="512" xmlns="http://www.w3.org/2000/svg"><g clip-rule="evenodd" fill="rgb(0,0,0)" fill-rule="evenodd"><path d="m1 7.5c0-2.20914 1.79086-4 4-4h14c2.2091 0 4 1.79086 4 4v10c0 2.2091-1.7909 4-4 4h-14c-2.20914 0-4-1.7909-4-4zm4-2c-1.10457 0-2 .89543-2 2v10c0 1.1046.89543 2 2 2h14c1.1046 0 2-.8954 2-2v-10c0-1.10457-.8954-2-2-2z"/><path d="m1 9.5c0-.55228.44772-1 1-1h20c.5523 0 1 .44772 1 1 0 .5523-.4477 1-1 1h-20c-.55228 0-1-.4477-1-1z"/><path d="m7 6v-3h2v3z"/><path d="m15 6v-3h2v3z"/></g></svg>