<svg viewBox="0 0 512 512" xmlns="http://www.w3.org/2000/svg" xmlns:xlink="http://www.w3.org/1999/xlink"><linearGradient id="linear-gradient" gradientUnits="userSpaceOnUse" x1="74.98" x2="437.02" y1="74.98" y2="437.02"><stop offset="0" stop-color="#f5b236"/><stop offset="1" stop-color="#fb541a"/></linearGradient><g id="Layer_2" data-name="Layer 2"><g id="Layer_1_copy_9" data-name="Layer 1 copy 9"><g id="_150" data-name="150"><circle id="background" cx="256" cy="256" fill="url(#linear-gradient)" r="256"/><path d="m292.94 224.75a70.75 70.75 0 0 0 33.39-60.1c0-38.95-31.55-70.65-70.33-70.65s-70.33 31.7-70.33 70.65a70.75 70.75 0 0 0 33.39 60.1 112.62 112.62 0 0 0 -75.5 106.25v64.57a8.48 8.48 0 0 0 8.44 8.43h208a8.48 8.48 0 0 0 8.48-8.48v-64.52a112.63 112.63 0 0 0 -75.54-106.25zm-90.31-60.1a53.37 53.37 0 1 1 53.37 53.7 53.59 53.59 0 0 1 -53.37-53.7zm148.86 222.35h-191v-56a95.49 95.49 0 0 1 191 0z" fill="#fff"/></g></g></g></svg>