<svg id="glyph_copy_5" viewBox="0 0 64 64" xmlns="http://www.w3.org/2000/svg" xmlns:xlink="http://www.w3.org/1999/xlink" data-name="glyph copy 5"><linearGradient id="linear-gradient" gradientUnits="userSpaceOnUse" x1="2" x2="62" y1="32" y2="32"><stop offset="0" stop-color="#00c0ff"/><stop offset="1" stop-color="#5558ff"/></linearGradient><path d="m32 2a30 30 0 1 0 30 30 30.03661 30.03661 0 0 0 -30-30zm-8.59 41.77-6.16 6.16a3.66281 3.66281 0 1 1 -5.18-5.18l6.16-6.16a1.50293 1.50293 0 0 1 2.13 0l3.05 3.05a1.50275 1.50275 0 0 1 0 2.13zm14.65-2.47a8.22743 8.22743 0 0 0 7.57-7.56h.01a6.73726 6.73726 0 0 1 5.79 5.81 8.25158 8.25158 0 0 0 -7.56 7.56 6.75807 6.75807 0 0 1 -5.81-5.81zm-.03-1.5a6.76273 6.76273 0 0 1 6.1-6.09 6.73614 6.73614 0 0 1 -6.1 6.09zm7.35 7.34a6.74192 6.74192 0 0 1 1.94-4.14 6.83482 6.83482 0 0 1 4.15-1.95 6.75292 6.75292 0 0 1 -6.09 6.09zm2.42-15.25c-.22.22-.45.43-.67.64a8.1083 8.1083 0 0 0 -2.38-.35 8.46574 8.46574 0 0 0 -.87.05 15.69761 15.69761 0 0 0 1.78-1.43l-2.93-2.92-2.19 2.19 2.34 2.33a8.758 8.758 0 0 0 -1.59.54l-1.8-1.81-2.19 2.18 1.26 1.26a4.71352 4.71352 0 0 0 .51-.12 8.3721 8.3721 0 0 0 -1.83 2.57 11.84684 11.84684 0 0 1 -7.43-1.65l-5.28 5.28a.37556.37556 0 0 0 -.06006-.07l-3.05-3.05a.37353.37353 0 0 0 -.07-.06l5.28-5.28c-3.19-5.05-1.87-12.64 3.48-17.99 6.02006-6.02 14.89006-6.95 19.76006-2.07 4.88 4.87 3.95 13.74-2.07 19.76zm-6.13-20.17-.46-.46c.31-.01.62-.02.92-.01zm-14.05 14.04-.46.47c0-.31 0-.61.02-.92zm4.85 4.84 2.71 2.71-1.3 1.31a8.47375 8.47375 0 0 1 -3.69-1.75zm3.77 3.78.45.44c-.31.02-.61.02-.92.02zm-4.84-4.85-2.27 2.28a8.47308 8.47308 0 0 1 -1.75-3.69l1.31-1.3zm.53-5.96 2.72 2.72-2.18 2.19-2.73-2.72zm3.78 3.78 2.72 2.72-2.19 2.19-2.72-2.73zm3.24-3.25 2.72 2.72-2.18 2.19-2.72-2.72zm7.03.54 2.63 2.62a16.94221 16.94221 0 0 1 -1.89 2.48l-2.93-2.92zm4.3-4.31.47-.46c.01.3 0 .61-.01.92zm-1.06 1.07 1.27 1.26a14.455 14.455 0 0 1 -1.13 3.23l-2.32-2.32zm-4.3 2.17-2.19 2.19-2.71-2.71 2.18-2.19zm-5.97-1.59-2.71-2.71 2.19-2.19 2.71 2.72zm-3.24 3.25-2.72-2.72 2.19-2.18 2.72 2.72zm-7.02-.53-1.26-1.26a13.55793 13.55793 0 0 1 1.12-3.24l2.32 2.31zm3.24-3.24-2.63-2.64a16.69352 16.69352 0 0 1 1.9-2.48l2.92 2.93zm3.25-3.25-2.92-2.93a16.94276 16.94276 0 0 1 2.48-1.89l2.62 2.63zm3.25-3.25-2.32-2.32a14.454 14.454 0 0 1 3.23-1.13l1.26 1.27zm3.77 3.77-2.71-2.71 2.18-2.18 2.71 2.72zm3.24-3.24-2.71-2.71 1.31-1.31a8.48947 8.48947 0 0 1 3.68 1.75zm3.34-1.21a8.49046 8.49046 0 0 1 1.75 3.68l-1.31 1.31-2.71-2.71zm-2.8 8.23-2.71-2.71 2.17-2.18 2.72 2.71z" fill="url(#linear-gradient)"/></svg>